<?xml version="1.0" standalone="no"?>
<!DOCTYPE svg PUBLIC "-//W3C//DTD SVG 1.1//EN" "http://www.w3.org/Graphics/SVG/1.1/DTD/svg11.dtd" >
<svg xmlns="http://www.w3.org/2000/svg">
<metadata></metadata>
<defs>
<font id="antonioregular" horiz-adv-x="892" >
<font-face units-per-em="2048" ascent="1638" descent="-410" />
<missing-glyph horiz-adv-x="503" />
<glyph horiz-adv-x="2048" />
<glyph horiz-adv-x="2048" />
<glyph unicode="&#xd;" horiz-adv-x="2048" />
<glyph unicode=" "  horiz-adv-x="503" />
<glyph unicode="&#x09;" horiz-adv-x="503" />
<glyph unicode="&#xa0;" horiz-adv-x="503" />
<glyph unicode="!" horiz-adv-x="528" d="M146 1760h235l-75 -1365h-84zM151 0v228h222v-228h-222z" />
<glyph unicode="&#x22;" horiz-adv-x="944" d="M220 1761h199l-65 -636h-70zM535 1761h199l-65 -636h-70z" />
<glyph unicode="#" horiz-adv-x="1288" d="M161 626v134h174l54 276h-173v134h200l117 591h172l-119 -591h202l119 591h172l-117 -591h144v-134h-171l-54 -276h170v-134h-197l-124 -626h-171l122 626h-203l-122 -626h-171l123 626h-147zM504 759h205l54 273h-204z" />
<glyph unicode="$" horiz-adv-x="881" d="M88 1175q0 319 268 350v235h125v-238q59 -10 101 -37q138 -90 138 -425v-72h-195v104q0 131 -25.5 195.5t-87.5 64.5t-93 -39t-31 -132q0 -146 137 -282l108 -101q212 -203 212 -444q0 -321 -249 -359v-241h-125v239q-123 15 -197 109t-74 322v113h199v-112 q0 -260 118 -260q65 0 93.5 42t28.5 146q0 163 -150 310q-11 11 -52 49.5t-54 51.5q-195 186 -195 411z" />
<glyph unicode="%" horiz-adv-x="2178" d="M156 1009v355q0 234 68 326t242.5 92t242.5 -92t68 -326v-355q0 -238 -69 -333t-241.5 -95t-241.5 95t-69 333zM341 937q0 -110 26.5 -152.5t98.5 -42.5t98.5 42.5t26.5 152.5v496q0 108 -26 148t-99 40t-99 -40.5t-26 -147.5v-496zM652 0l708 1760h171l-700 -1760h-179z M1401 408v355q0 234 68 326t242.5 92t242.5 -92t68 -326v-355q0 -238 -69 -333t-241.5 -95t-241.5 95t-69 333zM1587 336q0 -110 26.5 -152.5t98 -42.5t98.5 42.5t27 152.5v496q0 108 -26 148t-99 40t-99 -40.5t-26 -147.5v-496z" />
<glyph unicode="&#x26;" horiz-adv-x="981" d="M66 357q0 180 79 311t201 272q-155 369 -155 497q0 169 79.5 257t231.5 88t219 -87t67 -244t-67.5 -275.5t-171.5 -251.5q57 -140 160 -370q87 163 185 280l88 -144q-84 -101 -188 -325q159 -350 165 -365h-184q-16 39 -78 173q-58 -93 -132 -143t-202 -50t-212.5 98.5 t-84.5 278.5zM254 346.5q0 -191.5 155 -191.5q60 0 104.5 49.5t96.5 152.5q-117 247 -187 406q-169 -225 -169 -416.5zM385 1441q0 -91 95 -343q147 186 147 347q0 102 -23.5 145t-90 43t-93.5 -36t-31 -73t-4 -83z" />
<glyph unicode="'" horiz-adv-x="413" d="M112 1761h197l-65 -636h-72z" />
<glyph unicode="(" horiz-adv-x="567" d="M131 313v1078q0 200 41 292q42 94 164 117q54 10 139 11v-155q-70 0 -94 -17.5t-34.5 -65.5t-10.5 -188v-1076q0 -221 34.5 -246t104.5 -25v-155q-157 1 -235 47q-108 65 -109 383z" />
<glyph unicode=")" horiz-adv-x="567" d="M92 38q70 0 94 17.5t34.5 66t10.5 187.5v1076q0 221 -34.5 246t-104.5 25v155q106 0 167.5 -15.5t104 -63.5t58 -130t15.5 -221v-1068q0 -139 -15.5 -221t-58 -130t-104 -63.5t-167.5 -15.5v155z" />
<glyph unicode="*" horiz-adv-x="960" d="M117 1480l81 139l231 -168l-29 276h160l-24 -273l226 172l81 -139l-257 -126l257 -133l-81 -140l-226 178l24 -278h-160l30 283l-227 -176l-80 140l250 126z" />
<glyph unicode="+" horiz-adv-x="808" d="M103 751v140h224v246h149v-246h227v-140h-227v-250h-149v250h-224z" />
<glyph unicode="," horiz-adv-x="462" d="M119 0v235h258v-226l-101 -353h-106l73 344h-124z" />
<glyph unicode="-" horiz-adv-x="696" d="M88 763v136h452v-136h-452z" />
<glyph unicode="." horiz-adv-x="532" d="M171 0v198h175v-198h-175z" />
<glyph unicode="/" horiz-adv-x="783" d="M87 0l439 1768h183l-440 -1768h-182z" />
<glyph unicode="0" horiz-adv-x="915" d="M101 475v841q0 234 73.5 349.5t280 115.5t281.5 -115t75 -350v-841q0 -243 -72.5 -369.5t-283 -126.5t-282.5 125.5t-72 370.5zM307 462q0 -238 59 -284q30 -24 72.5 -24t60.5 4q19 2 41 20q65 50 65 285v7v857q0 256 -109 275q-17 3 -49 3t-61.5 -12t-54 -71t-24.5 -194 v-858v-8z" />
<glyph unicode="1" horiz-adv-x="645" d="M47 1397v144q85 12 161.5 69t116.5 151h146v-1761h-206v1483q-34 -41 -96 -63.5t-122 -22.5z" />
<glyph unicode="2" d="M162 1065v108q0 412 86 507q33 36 67 58q65 42 182 42q289 0 289 -487q0 -242 -125 -478q-55 -102 -111 -200q-141 -244 -176 -460h385v-155h-585v98q0 199 200 587q1 1 65 125t77 142q33 61 53.5 163t20.5 207t-15 172t-37 88.5t-52.5 21.5t-49.5 -12q-72 -44 -72 -298 v-229h-202z" />
<glyph unicode="3" horiz-adv-x="908" d="M114 474v78h200v-81q0 -187 25.5 -251.5t113 -64.5t118 74t30.5 265.5t-41.5 269t-147.5 77.5h-57v165h55q74 0 112 24q77 48 77 283v6q0 175 -39 230t-107.5 55t-100 -62.5t-31.5 -225.5v-42h-203v45q0 237 77 349t258 112t265 -114.5t84 -346.5q0 -326 -178 -392 q182 -83 182 -442q0 -257 -85 -381t-270 -124t-261 119t-76 375z" />
<glyph unicode="4" d="M96 332v145l391 1284h213v-1265h145v-164h-145v-333h-188v333h-416zM266 496h246v916z" />
<glyph unicode="5" d="M128 316v194h200v-195q0 -76 23.5 -118.5t81.5 -42.5t83.5 42t25.5 130v525q0 107 -23 157t-79 50q-116 0 -116 -187l-178 16v873h553v-186h-364v-411q35 70 173 70h3q68 0 121 -47q109 -98 109 -518q0 -326 -15.5 -405t-31.5 -125q-52 -158 -259 -158q-307 0 -307 336z " />
<glyph unicode="6" d="M107 516v741q0 285 80.5 404t268.5 119t253.5 -108.5t67.5 -362.5v-60h-199v33q0 237 -30 279t-105 42t-102.5 -69t-27.5 -272v-246q65 86 218 86t221.5 -121t68.5 -412v-107q0 -241 -73.5 -361.5t-277.5 -120.5q-248 0 -321 210q-42 122 -42 326zM313 482 q0 -176 33 -250t124 -74q60 0 90 24q58 45 58 258v133q0 200 -29 276.5t-113 76.5q-58 0 -104 -24t-59 -48v-372z" />
<glyph unicode="7" d="M113 1587v174h702v-150q-2 -16 -58 -174.5t-102 -323.5q-164 -564 -198 -1112h-221q41 547 240 1182q62 208 100 305.5t38 98.5h-501z" />
<glyph unicode="8" d="M103 535.5q0 106.5 41 233.5t111 174q-139 99 -139 401q0 232 77 334t259.5 102t258 -101.5t75.5 -334.5q0 -300 -143 -398q66 -49 106 -177.5t40 -274.5v-70q-4 -233 -83 -338.5t-255 -105.5t-259 105t-88 332q-1 12 -1 118.5zM310 435q1 -161 29 -221t103 -60t103 35.5 t33 108t5 142.5v67q0 178 -34.5 267t-96 89t-102 -91.5t-40.5 -267.5v-69zM322 1321.5q0 -233.5 60 -289.5q26 -25 67 -25t68 25t45 100.5t18 186t-7.5 167t-25.5 84.5t-39 36t-62.5 8t-67.5 -18q-56 -41 -56 -274.5z" />
<glyph unicode="9" d="M67 1205v45q0 205 28.5 298.5t64.5 136.5q81 95 247.5 95t240 -87t88.5 -268q6 -73 6 -181v-708q0 -358 -101 -470q-78 -86 -235.5 -86t-229.5 110t-75 359v64h196v-30q0 -243 34 -285.5t99 -42.5t85.5 54.5t20.5 222.5v274q-52 -43 -151 -43q-188 0 -253 135t-65 407z M271 1177q0 -202 26.5 -275.5t120 -73.5t118.5 56v395q0 167 -19 225.5t-45 78t-68 19.5q-83 0 -108 -79t-25 -245v-101z" />
<glyph unicode=":" horiz-adv-x="555" d="M152 270v250h251v-250h-251zM152 1057v250h251v-250h-251z" />
<glyph unicode=";" horiz-adv-x="561" d="M133 954v280h281v-280h-281zM143 282v252h285v-243l-114 -394h-124l86 385h-133z" />
<glyph unicode="&#x3c;" horiz-adv-x="730" d="M64 649v211l576 381v-220l-433 -266l433 -277v-214z" />
<glyph unicode="=" horiz-adv-x="722" d="M84 576v159h584v-159h-584zM84 892v158h584v-158h-584z" />
<glyph unicode="&#x3e;" horiz-adv-x="730" d="M87 264v220l433 265l-433 278v214l576 -384v-211z" />
<glyph unicode="?" horiz-adv-x="799" d="M140 1160v210q0 159 20 215q37 106 98 151.5t169 45.5q167 0 227 -97q41 -68 51.5 -161t10.5 -213.5t-8 -198.5q-18 -174 -84 -264t-206 -130v-224h-179v316q87 26 121.5 50t54 39.5t34.5 41.5q53 92 58 251q2 70 2 195.5t-12 171t-69.5 45.5t-71 -47t-13.5 -201v-196 h-203zM242 1v298h177v-298h-177z" />
<glyph unicode="@" horiz-adv-x="1406" d="M94 831q0 440 157.5 695t512.5 255q417 0 520 -511q32 -158 32 -338.5t-24.5 -296.5t-80.5 -186.5t-128 -70.5t-121.5 62.5t-67.5 150.5q-18 -104 -73 -167t-121 -63q-123 0 -207 102.5t-84 332t68 358.5t192 129q70 0 122 -39.5t84 -95.5l30 122h100v-557q0 -99 16 -147 t56 -48q96 0 96 348q0 239 -15.5 338t-35.5 156q-94 276 -371 276q-497 0 -497 -803q0 -403 109 -576t331 -173q144 4 195 28l22 -139q-142 -29 -221 -29q-292 0 -444 223.5t-152 663.5zM548 821q0 -312 153 -312q73 0 119.5 70t46.5 180v303q-101 71 -171 71 q-148 0 -148 -312z" />
<glyph unicode="A" horiz-adv-x="939" d="M66 0l267 1760h249l291 -1760h-195l-50 336h-319l-46 -336h-197zM332 504h270l-139 930h-3z" />
<glyph unicode="B" horiz-adv-x="952" d="M160 0v1760h318q199 0 270.5 -90.5t73.5 -305.5v-38q0 -155 -29 -244t-104 -129q162 -66 162 -423v-37q-3 -264 -80 -378.5t-267 -114.5h-344zM367 167h127q88 0 118.5 69t30.5 263v61q0 170 -28 238t-110 68h-138v-699zM367 1025h117q60 0 85.5 19.5t36.5 77.5t11 190 v49v6q0 176 -61 208q-30 16 -87 16h-102v-566z" />
<glyph unicode="C" horiz-adv-x="918" d="M124 519v733q0 200 33 294t72 138q85 96 248 97q228 -1 294 -201q38 -115 38 -306v-195h-203v196q0 169 -18.5 228.5t-44.5 79t-66 19.5q-83 0 -114.5 -78.5t-31.5 -247.5v-762q0 -200 28.5 -279.5t110 -79.5t109 80t27.5 280v195h205v-193q0 -277 -75.5 -407.5 t-263.5 -130.5t-268 134.5t-80 405.5z" />
<glyph unicode="D" horiz-adv-x="949" d="M143 0v1760h331q202 0 278 -124.5t76 -353.5l1 -773q0 -271 -83 -390t-279 -119h-324zM349 167h106q60 0 94 24q73 52 73 286v810q0 165 -39 237t-128 72h-106v-1429z" />
<glyph unicode="E" horiz-adv-x="771" d="M144 0v1760h526v-172h-319v-602h302v-172h-302v-642h323v-172h-530z" />
<glyph unicode="F" horiz-adv-x="746" d="M143 0v1760h530v-173h-324v-556h304v-175h-304v-856h-206z" />
<glyph unicode="G" horiz-adv-x="942" d="M124 524v738q0 388 184 482q72 36 158 37q161 0 233 -68.5t93 -181t21 -273.5v-136h-200v229q0 135 -27.5 193t-108 58t-113.5 -73t-33 -258v-740q0 -211 29 -293.5t114.5 -82.5t117 85t31.5 295v229h-143v160h333v-924h-109l-28 136q-59 -153 -225.5 -153t-246.5 129.5 t-80 411.5z" />
<glyph unicode="H" horiz-adv-x="984" d="M144 0v1760h207v-738h282v738h207v-1760h-207v853h-282v-853h-207z" />
<glyph unicode="I" horiz-adv-x="527" d="M160 0v1760h207v-1760h-207z" />
<glyph unicode="J" horiz-adv-x="858" d="M82 389v230h202v-217q0 -134 12 -164t24 -48q24 -35 79.5 -35t79 37.5t28 92t4.5 133.5v1342h207v-1334q0 -447 -314 -447q-166 0 -244 101.5t-78 308.5z" />
<glyph unicode="K" horiz-adv-x="894" d="M144 0v1760h207v-839l313 839h208l-328 -869l351 -891h-216l-326 842v-842h-209z" />
<glyph unicode="L" horiz-adv-x="712" d="M144 0v1760h207v-1589h325v-171h-532z" />
<glyph unicode="M" horiz-adv-x="1296" d="M144 0v1760h258l252 -1447l239 1447h259v-1760h-184v706l17 658l-239 -1361h-187l-249 1361l17 -658v-706h-183z" />
<glyph unicode="N" horiz-adv-x="1014" d="M144 0v1760h156l408 -1198l-21 509v689h183v-1760h-152l-395 1208l12 -444v-764h-191z" />
<glyph unicode="O" horiz-adv-x="944" d="M124 506v776q0 300 108 412q85 88 247 88q236 0 302 -194q39 -115 39 -306v-776q0 -275 -77 -400.5t-269.5 -125.5t-271 126t-78.5 400zM331 504q0 -201 28 -273.5t113 -72.5t113 73.5t28 272.5v790q0 169 -27 239.5t-109 70.5t-114 -72t-32 -237v-791z" />
<glyph unicode="P" horiz-adv-x="890" d="M144 0v1760h354q234 0 294 -194q38 -122 38 -285t-9 -245q-20 -180 -95 -262.5t-228 -82.5h-147v-691h-207zM351 863h126q88 0 117 77t29 289v34q0 181 -28.5 257t-112.5 76h-131v-733z" />
<glyph unicode="Q" horiz-adv-x="944" d="M124 506v776q0 300 108 412q85 88 247 88q236 0 302 -194q39 -115 39 -306v-776q0 -274 -77 -400q-45 -73 -128 -104l154 -178l-102 -93l-230 250q-164 11 -238.5 131t-74.5 394zM331 504q0 -201 28 -273.5t113 -72.5t113 73.5t28 272.5v790q0 169 -27 239.5t-109 70.5 t-114 -72t-32 -237v-791z" />
<glyph unicode="R" horiz-adv-x="953" d="M144 0v1760h369q157 0 226 -65t83 -221q6 -64 6 -199.5t-35.5 -227.5t-125.5 -119q66 -11 100 -69.5t48 -186t14 -379t16 -293.5h-206q-16 32 -16 593q0 189 -37 219.5t-112 30.5l-123 7v-850h-207zM351 1002h132q60 0 88 23t40 88t12 204v12q0 203 -36.5 235t-105.5 32 h-130v-594z" />
<glyph unicode="S" horiz-adv-x="872" d="M106 1366q0 191 70.5 303.5t269.5 112.5q256 0 302 -246q20 -106 20 -267v-104h-198v118q0 168 -17 226t-42 77t-65 19q-75 0 -108 -55t-33 -163t30 -158t74 -95.5t49 -51.5l120 -127q216 -226 216 -506q0 -228 -70.5 -348.5t-268.5 -120.5q-239 0 -303 210 q-37 118 -37 309v10v171h201v-179q0 -193 28 -268.5t104 -75.5t105 35.5t33.5 108.5t4.5 164q0 183 -161 344l-115 115q-154 158 -191 291q-18 63 -18 151z" />
<glyph unicode="T" horiz-adv-x="637" d="M28 1588v172h581v-172h-181v-1588h-206v1588h-194z" />
<glyph unicode="U" horiz-adv-x="963" d="M134 452v1308h207v-1303q0 -176 14.5 -210.5t30.5 -54.5q28 -38 97 -38t102 42t35.5 125t2.5 135v1304h206v-1308q0 -247 -77.5 -360t-268.5 -113t-270 113t-79 360z" />
<glyph unicode="V" horiz-adv-x="921" d="M60 1760h197l117 -745l100 -655h4l87 655l101 745h195l-267 -1760h-241z" />
<glyph unicode="W" horiz-adv-x="1359" d="M64 1760h191l150 -1349l200 1349h169l205 -1349l127 1349h190l-208 -1760h-205l-188 1299l-199 -1299h-200z" />
<glyph unicode="X" horiz-adv-x="814" d="M55 0l252 932l-244 828h181l172 -586l151 586h186l-244 -903l252 -857h-180l-179 608l-158 -608h-189z" />
<glyph unicode="Y" horiz-adv-x="836" d="M20 1760h201l208 -720h4l181 720h203l-284 -1021v-739h-207v739z" />
<glyph unicode="Z" horiz-adv-x="764" d="M115 0v179l363 1409h-330v172h544v-158l-363 -1430h355v-172h-569z" />
<glyph unicode="[" horiz-adv-x="764" d="M217 0v1761h415v-160h-209v-1441h209v-160h-415z" />
<glyph unicode="\" horiz-adv-x="868" d="M115 1761h182l410 -1761h-181z" />
<glyph unicode="]" horiz-adv-x="764" d="M166 0v160h210v1441h-210v160h415v-1761h-415z" />
<glyph unicode="^" horiz-adv-x="1030" d="M143 577l241 923h261l241 -923h-201l-170 763l-170 -763h-202z" />
<glyph unicode="_" horiz-adv-x="748" d="M48 -46h651v-152h-651v152z" />
<glyph unicode="`" horiz-adv-x="650" d="M121 492v211l371 -194v-111z" />
<glyph unicode="a" horiz-adv-x="926" d="M126 385v146q0 129 70.5 220.5t389.5 208.5v116q0 193 -28 232t-95.5 39t-90.5 -59t-23 -213v-52h-204v43q0 272 85 362t242 90t227.5 -76t86.5 -244q7 -72 7 -177v-1021h-206v130q-16 -54 -70 -98.5t-134 -44.5q-255 0 -257 398zM333 391q0 -131 23 -184.5t79 -53.5 t96 32.5t55 70.5v571q-126 -57 -168 -88t-63.5 -72.5t-21.5 -136.5v-139z" />
<glyph unicode="b" horiz-adv-x="937" d="M147 0v1779h205v-398q16 58 71 97.5t118 39.5q185 0 238 -183q35 -118 35 -295v-577q0 -278 -76 -387q-62 -89 -182 -89q-146 0 -204 139v-126h-205zM352 458q0 -163 27.5 -233.5t104 -70.5t100.5 70t24 239v604q0 149 -13.5 187t-31.5 65t-63 27q-44 0 -68 -10 q-80 -36 -80 -270v-608z" />
<glyph unicode="c" horiz-adv-x="880" d="M124 506v502q0 195 29.5 285.5t66.5 132.5q81 92 238 92t226 -78q68 -78 84 -232q6 -66 7 -157v-104h-202v132q0 140 -11 183q-40 64 -96 80q-98 0 -121 -98q-15 -62 -15 -171v-638q0 -154 23.5 -215.5t90.5 -61.5t98 43.5t31 229.5v145h202v-97q0 -307 -81 -402 t-247 -95q-262 0 -307 280q-16 103 -16 244z" />
<glyph unicode="d" horiz-adv-x="938" d="M124 480v567q0 271 88 383q70 88 198 88q56 0 103.5 -33t72.5 -85v379h206v-1779h-206v126q-56 -139 -207 -139q-207 0 -243 273q-12 91 -12 220zM330 439q0 -220 58 -266q24 -19 68 -19t72 24q59 50 59 270v602q0 158 -26.5 227t-102 69t-102 -69.5t-26.5 -231.5v-606z " />
<glyph unicode="e" horiz-adv-x="893" d="M124 505v530q0 284 102 395q80 88 236 88q226 0 284 -195q32 -110 32 -297v-283h-448v-299q0 -195 31 -243t98 -48t89.5 56t23.5 121.5t1 110.5v121h201v-64q0 -239 -33.5 -335t-101.5 -138.5t-168.5 -42.5t-161 25.5t-96 67.5t-62.5 134t-27 296zM329 882h244v191 q0 160 -11.5 193t-29.5 58t-65 25q-90 0 -114 -75.5t-24 -207.5v-184z" />
<glyph unicode="f" horiz-adv-x="623" d="M71 1291v151h129v73q0 271 232 271q86 0 149 -21v-143q-40 6 -87 6t-68 -25.5t-21 -79.5v-81h176v-151h-176v-1291h-205v1291h-129z" />
<glyph unicode="g" horiz-adv-x="929" d="M119 -133l74 140q109 -74 231 -74q81 0 120 51t39 137v143q-27 -70 -75 -97q-50 -27 -124 -27q-150 0 -206 127t-56 341v430q0 480 278 480q141 0 183 -128v110h205v-1360q0 -268 -202 -343q-70 -26 -162 -26q-184 0 -305 96zM328 603q0 -159 29 -229.5t109 -70.5 q42 0 66 24q50 49 51 278v463q0 146 -26.5 212.5t-93 66.5t-93.5 -38t-34.5 -95t-7.5 -144v-467z" />
<glyph unicode="h" horiz-adv-x="969" d="M147 0v1779h205v-438q21 73 87 125.5t166.5 52.5t163.5 -81.5t63 -241.5v-1196h-205v1179q0 163 -123 163q-67 0 -109.5 -47.5t-42.5 -140.5v-1154h-205z" />
<glyph unicode="i" horiz-adv-x="503" d="M150 0v1500h205v-1500h-205zM150 1638v188h206v-188h-206z" />
<glyph unicode="j" horiz-adv-x="533" d="M74 -56h6q14 -2 29 -2t23 1q50 5 50 67v1490h205v-1480q0 -117 -48.5 -171t-117.5 -58q-22 -2 -76.5 -2t-70.5 11v144zM180 1638v188h206v-188h-206z" />
<glyph unicode="k" horiz-adv-x="866" d="M147 0v1779h205v-992l295 713h207l-316 -741l333 -759h-211l-308 730v-730h-205z" />
<glyph unicode="l" horiz-adv-x="501" d="M148 0v1779h205v-1779h-205z" />
<glyph unicode="m" horiz-adv-x="1432" d="M147 0v1500h205v-156q21 76 83 125.5t151 49.5q158 0 212 -152q38 70 103.5 111t150.5 41q119 0 181 -85t62 -250v-1184h-205v1190q0 152 -120 152q-136 0 -146 -139v-1203h-206v1191q0 151 -118 151q-72 0 -110 -46.5t-38 -127.5v-1168h-205z" />
<glyph unicode="n" horiz-adv-x="970" d="M147 0v1500h205v-159q20 73 87.5 125.5t168 52.5t163 -81.5t62.5 -241.5v-1196h-205v1195q0 76 -35 114t-97 38t-103 -43t-41 -129v-1175h-205z" />
<glyph unicode="o" horiz-adv-x="914" d="M124 496v531q0 365 168 455q68 36 158 36q235 0 300 -189q40 -119 40 -302v-531q0 -316 -85 -415t-246 -99q-235 0 -299 200q-36 115 -36 314zM330 439q0 -221 62 -267q25 -19 62 -19h4q79 0 102.5 74.5t23.5 211.5v629q0 214 -61 260q-25 19 -65 19q-81 0 -104.5 -73 t-23.5 -206v-629z" />
<glyph unicode="p" horiz-adv-x="938" d="M147 -274v1774h205v-125q28 69 85 103.5t121 34.5q179 0 227 -186q30 -116 30 -297v-543q0 -299 -75.5 -402t-212.5 -103q-55 0 -102 34t-73 84v-374h-205zM352 451q0 -159 27.5 -228t103 -69t101 70t25.5 235v607v19v17v15v13v11q0 77 -13 112q-14 39 -27 57 q-26 36 -75.5 36t-77.5 -19q-64 -43 -64 -261v-615z" />
<glyph unicode="q" horiz-adv-x="931" d="M124 480v550q0 282 74 392q61 90 182 91q149 0 205 -130v117h205v-1774h-205v378q-22 -52 -69.5 -87t-109.5 -35t-114 25q-97 47 -132.5 168t-35.5 305zM329 437q0 -180 28 -231.5t82.5 -51.5t82.5 20q62 44 62 261v615q0 159 -28 227.5t-103 68.5t-99.5 -68.5 t-24.5 -233.5v-607z" />
<glyph unicode="r" horiz-adv-x="651" d="M147 0v1500h206v-167q26 88 91.5 136.5t163.5 48.5q4 0 4 -130l-1 -44q-180 0 -258 -125v-1219h-206z" />
<glyph unicode="s" horiz-adv-x="805" d="M88 1165q0 178 84 265.5t239 87.5q105 0 171 -43q138 -90 138 -425v-72h-195v104q0 131 -25.5 195.5t-87.5 64.5t-93 -39t-31 -132q0 -146 137 -282l108 -101q212 -203 212 -444q-1 -364 -321 -364q-162 0 -243 103t-81 331v113h199v-112q0 -260 118 -260q65 0 93.5 42 t28.5 146q0 163 -150 310q-11 11 -52 49.5t-54 51.5q-195 186 -195 411z" />
<glyph unicode="t" horiz-adv-x="612" d="M46 1336v152h137v272h205v-272h162v-152h-162v-1095q0 -58 27 -72.5t137 -14.5v-163h-141q-142 0 -185 51.5t-43 180.5v1113h-137z" />
<glyph unicode="u" horiz-adv-x="968" d="M137 312v1188h205v-1165q0 -177 129 -177q72 0 108.5 50t36.5 132v1160h206v-1500h-206v153q-24 -76 -82.5 -124.5t-157 -48.5t-169 81.5t-70.5 250.5z" />
<glyph unicode="v" horiz-adv-x="753" d="M42 1500h191l108 -845l35 -335h19l29 336l97 844h190l-215 -1500h-241z" />
<glyph unicode="w" horiz-adv-x="1160" d="M51 1500h172l79 -835l23 -287h9l38 288l119 834h179l119 -812l41 -310h8l24 311l78 811h168l-181 -1500h-189l-151 1174l-180 -1174h-181z" />
<glyph unicode="x" horiz-adv-x="743" d="M26 0l252 773l-235 727h181l158 -479l140 479h186l-242 -734l252 -766h-191l-164 510l-151 -510h-186z" />
<glyph unicode="y" horiz-adv-x="791" d="M52 1500h199l108 -780l44 -406h18l39 406l98 780h198l-249 -1529q-18 -125 -46 -163t-62 -48.5t-89 -10.5h-201v155h71q105 0 116 24q9 11 9 43t-8 82z" />
<glyph unicode="z" horiz-adv-x="680" d="M76 0v153l330 1170h-305v177h517v-141l-331 -1184h314v-175h-525z" />
<glyph unicode="{" horiz-adv-x="798" d="M165 720v220q93 0 116 40.5t23 187.5v275q0 194 61.5 266t221.5 72h60v-167q-91 0 -115 -32t-24 -152v-246q0 -236 -41.5 -282.5t-124.5 -71.5q83 -25 111.5 -57t41.5 -90t13 -207v-246q0 -120 24 -152t115 -32v-167h-60q-160 0 -221.5 72t-61.5 266v275q0 147 -23 187.5 t-116 40.5z" />
<glyph unicode="|" horiz-adv-x="537" d="M175 -84v1961h197v-1961h-197z" />
<glyph unicode="}" horiz-adv-x="798" d="M165 46q91 0 115 32t24 152v246q0 236 41.5 282.5t124.5 71.5q-83 25 -111.5 57t-41.5 90t-13 207v246q0 120 -24 152t-115 32v167h60q160 0 221.5 -72t61.5 -266v-275q0 -147 23 -187.5t116 -40.5v-220q-93 0 -116 -40.5t-23 -187.5v-275q0 -194 -61.5 -266t-221.5 -72 h-60v167z" />
<glyph unicode="~" horiz-adv-x="1117" d="M111 909q79 225 230 225q57 0 209 -44q149 -43 167 -43h1q77 0 111 114l164 -42q-29 -114 -91 -200.5t-129 -86.5t-216.5 46t-203 46t-93.5 -93z" />
<glyph unicode="&#xa1;" horiz-adv-x="545" d="M175 -221l75 1365h84l76 -1365h-235zM183 1311v228h222v-228h-222z" />
<glyph unicode="&#xa2;" horiz-adv-x="788" d="M124 506v502q0 195 29.5 285.5t66.5 132.5q64 73 182 88v253h113v-252q113 -12 176 -82q84 -94 84 -382v-104h-202v132q0 140 -11 183q-40 64 -96 80q-98 0 -121 -98q-15 -62 -15 -171v-638q0 -154 23.5 -215.5t90.5 -61.5t98 43.5t31 229.5v145h202v-97q0 -307 -86 -408 q-61 -72 -174 -86v-235h-113v235q-134 17 -196 105q-49 70 -65.5 172.5t-16.5 243.5z" />
<glyph unicode="&#xa3;" d="M38 809v145h203q-68 250 -68 429q0 398 347 398q164 0 242.5 -98t78.5 -302v-135h-186v147q0 140 -35 186t-100 46q-157 0 -157 -239q0 -164 74 -432h350v-145h-311q15 -97 15 -175q0 -374 -194 -470h545v-164h-777v143q123 54 175 167t52 322q0 90 -17 177h-237z" />
<glyph unicode="&#xa4;" horiz-adv-x="1159" d="M125 659l91 91q-53 98 -53 214.5t52 213.5l-90 90l149 150l87 -88q97 55 218 55t218 -54l87 87l150 -149l-90 -90q54 -97 54 -215t-54 -216l90 -90l-150 -149l-89 88q-92 -52 -216 -52t-216 53l-89 -89zM336 963.5q0 -110.5 67 -185.5t176 -75t176.5 76t67.5 188 t-66.5 184.5t-176 72.5t-177 -75t-67.5 -185.5z" />
<glyph unicode="&#xa5;" horiz-adv-x="843" d="M20 1760h201l208 -720h4l181 720h203l-268 -962h214v-116h-230v-175h230v-116h-230v-391h-207v391h-241v116h241v175h-241v116h223z" />
<glyph unicode="&#xa6;" horiz-adv-x="530" d="M122 -118v808h197v-808h-197zM122 897v830h197v-830h-197z" />
<glyph unicode="&#xa7;" horiz-adv-x="805" d="M87 950q0 76 40 133t115 89q-69 62 -111.5 149t-42.5 166q0 133 89 214t231 81t226.5 -107t84.5 -282v-61h-194v86q0 115 -39.5 167t-96 52t-89 -41t-32.5 -100t45 -125.5t112 -121.5q320 -251 320 -449q0 -77 -48.5 -121.5t-110.5 -82.5q159 -135 159 -315 q0 -136 -88 -218.5t-235 -82.5t-234.5 92t-87.5 268v94h199v-92q0 -110 27.5 -163.5t99.5 -53.5q133 0 133 154v2v3q0 131 -93 225q-48 49 -146 121q-98 70 -140 110q-93 88 -93 210zM257 948q0 -48 52.5 -102t204.5 -173q74 50 74 113t-56 127t-193 161l-1 1 q-81 -47 -81 -127z" />
<glyph unicode="&#xa8;" horiz-adv-x="976" d="M131 418v178h230v-178h-230zM615 418v178h230v-178h-230z" />
<glyph unicode="&#xa9;" horiz-adv-x="1466" d="M84 862q0 184 86 334.5t236.5 236.5t334.5 86t334.5 -86t236.5 -236.5t86 -334.5t-86 -334.5t-236.5 -236.5t-334.5 -86t-334.5 86t-236.5 236.5t-86 334.5zM225 861.5q0 -80.5 20 -156.5t62.5 -143.5t102.5 -118t145.5 -80t185.5 -29.5t185 29.5t145.5 80.5t102.5 118.5 t62.5 143.5t20.5 156.5t-20 156.5t-62.5 143.5t-102.5 118t-145.5 80t-185.5 29.5t-185 -29.5t-145.5 -80.5t-102.5 -118.5t-62.5 -143.5t-20.5 -156.5zM527 628v461q0 105 46.5 160.5t157.5 55.5t160 -46t49 -164v-118h-125v107q0 71 -21.5 88t-45.5 17q-24 1 -36 -1 q-60 -8 -60 -91v-481q0 -47 23.5 -63.5t61.5 -16.5t58 16t20 64v149h129v-142q0 -100 -48 -149.5t-156.5 -49.5t-160.5 55t-52 149z" />
<glyph unicode="&#xaa;" horiz-adv-x="927" d="M201 700v118q0 100 54 173.5t269 154.5q38 14 45 17v68q0 141 -12 181q-18 59 -79.5 59t-80 -46.5t-18.5 -169.5v-44h-163v35q0 217 67.5 289.5t196.5 72.5q181 0 227 -148q27 -87 27 -250v-817h-164v100q-11 -39 -55.5 -75t-108.5 -36q-203 0 -205 318zM366 706 q0 -105 18.5 -148t63.5 -43t77 26t44 57v453q-70 -31 -103 -49t-59.5 -45t-33.5 -58.5t-7 -84.5v-108z" />
<glyph unicode="&#xab;" horiz-adv-x="1304" d="M82 657v182l478 271v-207l-312 -154l312 -163v-214zM620 657v182l478 271v-207l-312 -154l312 -163v-214z" />
<glyph unicode="&#xac;" horiz-adv-x="947" d="M97 796v183h696v-540h-191v357h-505z" />
<glyph unicode="&#xad;" horiz-adv-x="696" d="M90 573v168h516v-168h-516z" />
<glyph unicode="&#xae;" horiz-adv-x="1502" d="M94 862q0 184 86 334.5t236.5 236.5t334.5 86t334.5 -86t236.5 -236.5t86 -334.5t-86 -334.5t-236.5 -236.5t-334.5 -86t-334.5 86t-236.5 236.5t-86 334.5zM235 862q0 -262 185 -418q130 -109 331 -110q242 0 379 156t137 373q0 261 -185 417q-130 110 -331 110 q-291 0 -433 -228q-83 -132 -83 -300zM567 430v852h211q103 0 135.5 -46.5t32.5 -162.5v-27q0 -71 -10 -87t-24.5 -32.5t-63.5 -27.5q45 -4 68 -31q23 -28 23 -90v-348h-128v332q0 44 -21.5 65t-90.5 21v-418h-132zM700 945q46 0 71 5t37.5 23t14.5 37t2 76t-22 77.5 t-103 20.5v-239z" />
<glyph unicode="&#xaf;" horiz-adv-x="696" d="M90 412v132h501v-132h-501z" />
<glyph unicode="&#xb0;" horiz-adv-x="915" d="M104 1269q0 162 106.5 248t247 86t247 -86t106.5 -248q0 -80 -30.5 -145.5t-80.5 -105.5q-103 -84 -242.5 -84t-246.5 86.5t-107 248.5zM259 1265q0 -64 29 -113q56 -96 170 -96h2q112 0 168 95q29 48 29 109q0 177 -157 218q-21 6 -42 6l-42 -6q-157 -41 -157 -213z" />
<glyph unicode="&#xb1;" horiz-adv-x="854" d="M129 766v140h224v246h148v-246h228v-140h-228v-250h-148v250h-224zM165 188v149h516v-149h-516z" />
<glyph unicode="&#xb2;" horiz-adv-x="846" d="M222 1262v78q0 246 39 325t111 101q40 12 96 13q212 0 212 -352q0 -177 -90 -349q-40 -74 -81 -146q-104 -181 -128 -329h283v-113h-438v67q0 81 111 330.5t145 291.5q54 99 54 261t-38 197q-16 15 -42 15t-44 -16q-42 -37 -42 -208v-166h-148z" />
<glyph unicode="&#xb3;" horiz-adv-x="868" d="M197 902v54h142v-54q0 -125 18 -169t78 -44t80.5 49t20.5 177t-29.5 180.5t-104.5 52.5h-29v113h28q51 1 78 16q56 31 56 166t-25.5 175t-74 40t-70 -42t-21.5 -152v-25h-143v28q0 159 54.5 234.5t180.5 75.5t185 -77.5t59 -232.5q0 -217 -120 -261q122 -54 122 -296 q0 -172 -60 -255.5t-188.5 -83.5t-182.5 80t-54 251z" />
<glyph unicode="&#xb4;" horiz-adv-x="650" d="M100 1844v111l419 174v-199z" />
<glyph unicode="&#xb6;" horiz-adv-x="1119" d="M135 1456q0 91 27 149.5t92 93.5q115 62 400 62h303v-1761h-178v1575h-143v-1575h-178v1135q-323 36 -323 321z" />
<glyph unicode="&#xb7;" horiz-adv-x="480" d="M148 769v208h200v-208h-200z" />
<glyph unicode="&#xb8;" horiz-adv-x="1015" d="M351 -501q231 0 231 141q0 64 -46.5 106.5t-113.5 57.5l40 196h69l12 -144q203 -84 203 -253q0 -83 -77.5 -151.5t-200.5 -68.5q-57 0 -117 18v98z" />
<glyph unicode="&#xb9;" horiz-adv-x="627" d="M90 1499v101q65 7 127 50t85 109h107v-1272h-156v1070q-60 -58 -163 -58z" />
<glyph unicode="&#xba;" horiz-adv-x="908" d="M200 789v424q0 293 136 365q54 29 128 29q193 0 242 -152q31 -95 31 -242v-424q0 -251 -68.5 -331.5t-197.5 -80.5q-189 0 -241 160q-30 94 -30 252zM366 743q0 -116 21.5 -172.5t83.5 -56.5q77 0 93 106q7 43 7 107v16v503q0 113 -20.5 168.5t-81.5 55.5t-82 -55 t-21 -169v-503z" />
<glyph unicode="&#xbb;" horiz-adv-x="1304" d="M172 372v214l312 163l-312 154v207l478 -271v-182zM710 372v214l312 163l-312 154v207l478 -271v-182z" />
<glyph unicode="&#xbc;" horiz-adv-x="1535" d="M95 1476v96q61 7 119.5 49t82.5 107h100v-1246h-147v1051q-55 -57 -155 -57zM457 0l479 1768h153l-479 -1768h-153zM909 219v91l251 837h156v-822h90v-106h-90v-219h-126v219h-281zM1028 325h162v603z" />
<glyph unicode="&#xbd;" horiz-adv-x="1620" d="M95 1476v96q61 7 119.5 49t82.5 107h100v-1246h-147v1051q-55 -57 -155 -57zM457 0l479 1768h153l-479 -1768h-153zM1092 757v77q0 242 38 319.5t108 98.5q40 12 94 12q206 0 206 -345q0 -173 -90 -343q-38 -74 -78 -144q-100 -177 -125 -323h277v-108h-426v65 q0 53 57.5 198.5t117 268.5t75.5 142q53 95 53 281t-80 186q-26 0 -43 -15q-41 -36 -41 -207v-163h-143z" />
<glyph unicode="&#xbe;" horiz-adv-x="1555" d="M119 896v50h132v-50q0 -125 17 -167.5t75.5 -42.5t78.5 48.5t20 173.5t-29 176.5t-100 51.5h-28v111h26q49 1 75 15q54 29 54 161.5t-24.5 172t-71.5 39.5t-67.5 -41.5t-20.5 -150.5l-1 -24h-132v27q0 154 51.5 227.5t169.5 73.5t173 -74.5t55 -226.5q0 -212 -114 -255 q117 -53 117 -289q0 -166 -56.5 -247t-176.5 -81t-171.5 78t-51.5 244zM515 0l479 1768h154l-480 -1768h-153zM929 219v91l251 837h156v-822h90v-106h-90v-219h-126v219h-281zM1048 325h162v603z" />
<glyph unicode="&#xbf;" horiz-adv-x="1044" d="M208 185.5q0 120.5 8 198.5q18 174 84 264t206 130v224h179v-316q-87 -26 -121.5 -50t-54 -39.5t-34.5 -41.5q-53 -92 -58 -251q-2 -70 -2 -195.5t12 -171t69.5 -45.5t71 47t13.5 201v196h203v-210q0 -159 -20 -215q-37 -106 -98 -151.5t-169 -45.5q-167 0 -227 97 q-41 68 -51.5 161t-10.5 213.5zM505 1197v298h177v-298h-177z" />
<glyph unicode="&#xc0;" horiz-adv-x="939" d="M66 0l267 1760h249l291 -1760h-195l-50 336h-319l-46 -336h-197zM277 1952v211l371 -194v-111zM332 504h270l-139 930h-3z" />
<glyph unicode="&#xc1;" horiz-adv-x="939" d="M66 0l267 1760h249l291 -1760h-195l-50 336h-319l-46 -336h-197zM269 1896v111l419 174v-199zM332 504h270l-139 930h-3z" />
<glyph unicode="&#xc2;" horiz-adv-x="939" d="M66 0l267 1760h249l291 -1760h-195l-50 336h-319l-46 -336h-197zM189 1852l154 294h232l153 -294h-183l-86 205l-86 -205h-184zM332 504h270l-139 930h-3z" />
<glyph unicode="&#xc3;" horiz-adv-x="939" d="M66 0l267 1760h249l291 -1760h-195l-50 336h-319l-46 -336h-197zM146 1952q27 93 71 125.5t98.5 32.5t153 -37t119.5 -37h4q17 3 29.5 16.5t26.5 54.5l123 -28l-9 -37q-25 -95 -60 -127.5t-88 -32.5t-147.5 41t-123 41t-44 -3.5t-42.5 -57.5zM332 504h270l-139 930h-3z " />
<glyph unicode="&#xc4;" horiz-adv-x="939" d="M66 0l267 1760h249l291 -1760h-195l-50 336h-319l-46 -336h-197zM102 1878v178h230v-178h-230zM332 504h270l-139 930h-3zM586 1878v178h230v-178h-230z" />
<glyph unicode="&#xc5;" horiz-adv-x="939" d="M66 0l267 1760h249l291 -1760h-195l-50 336h-319l-46 -336h-197zM258 2043.5q0 78.5 53.5 133t146.5 54.5t146.5 -54.5t53.5 -133t-53.5 -133t-146.5 -54.5t-146.5 54.5t-53.5 133zM332 504h270l-139 930h-3zM351 2044q0 -47 28.5 -81.5t79.5 -34.5t80 34.5t29 81.5 t-29 81.5t-80 34.5t-79.5 -34.5t-28.5 -81.5z" />
<glyph unicode="&#xc6;" horiz-adv-x="1206" d="M66 0l353 1760h686v-172h-302v-602h285v-174h-285v-640h306v-172h-513v336h-267l-65 -336h-198zM359 497h237v1093l-26 -1z" />
<glyph unicode="&#xc7;" horiz-adv-x="918" d="M124 519v733q0 200 33 294t72 138q85 96 248 97q228 -1 294 -201q38 -115 38 -306v-195h-203v196q0 169 -18.5 228.5t-44.5 79t-66 19.5q-83 0 -114.5 -78.5t-31.5 -247.5v-762q0 -200 28.5 -279.5t110 -79.5t109 80t27.5 280v195h205v-193q0 -277 -75.5 -407.5 t-263.5 -130.5t-268 134.5t-80 405.5zM303 -501q231 0 231 141q0 64 -46.5 106.5t-113.5 57.5l40 196h69l12 -144q203 -84 203 -253q0 -83 -77.5 -151.5t-200.5 -68.5q-57 0 -117 18v98z" />
<glyph unicode="&#xc8;" horiz-adv-x="771" d="M144 0v1760h526v-172h-319v-602h302v-172h-302v-642h323v-172h-530zM234 1952v211l371 -194v-111z" />
<glyph unicode="&#xc9;" horiz-adv-x="771" d="M144 0v1760h526v-172h-319v-602h302v-172h-302v-642h323v-172h-530zM225 1896v111l419 174v-199z" />
<glyph unicode="&#xca;" horiz-adv-x="771" d="M144 0v1760h526v-172h-319v-602h302v-172h-302v-642h323v-172h-530zM144 1852l154 294h232l153 -294h-183l-86 205l-86 -205h-184z" />
<glyph unicode="&#xcb;" horiz-adv-x="771" d="M57 1878v178h230v-178h-230zM144 0v1760h526v-172h-319v-602h302v-172h-302v-642h323v-172h-530zM541 1878v178h230v-178h-230z" />
<glyph unicode="&#xcc;" horiz-adv-x="527" d="M82 1952v211l371 -194v-111zM160 0v1760h207v-1760h-207z" />
<glyph unicode="&#xcd;" horiz-adv-x="527" d="M74 1896v111l419 174v-199zM160 0v1760h207v-1760h-207z" />
<glyph unicode="&#xce;" horiz-adv-x="527" d="M-6 1852l154 294h232l153 -294h-183l-86 205l-86 -205h-184zM160 0v1760h207v-1760h-207z" />
<glyph unicode="&#xcf;" horiz-adv-x="527" d="M-93 1878v178h230v-178h-230zM160 0v1760h207v-1760h-207zM391 1878v178h230v-178h-230z" />
<glyph unicode="&#xd0;" horiz-adv-x="949" d="M54 868v136h452v-136h-452zM143 0v1760h331q202 0 278 -124.5t76 -353.5l1 -773q0 -271 -83 -390t-279 -119h-324zM349 167h106q60 0 94 24q73 52 73 286v810q0 165 -39 237t-128 72h-106v-1429z" />
<glyph unicode="&#xd1;" horiz-adv-x="1014" d="M144 0v1760h156l408 -1198l-21 509v689h183v-1760h-152l-395 1208l12 -444v-764h-191zM194 1952q27 93 71 125.5t98.5 32.5t153 -37t119.5 -37h4q17 3 29.5 16.5t26.5 54.5l123 -28l-9 -37q-25 -95 -60 -127.5t-88 -32.5t-147.5 41t-123 41t-44 -3.5t-42.5 -57.5z" />
<glyph unicode="&#xd2;" horiz-adv-x="944" d="M124 506v776q0 300 108 412q85 88 247 88q236 0 302 -194q39 -115 39 -306v-776q0 -275 -77 -400.5t-269.5 -125.5t-271 126t-78.5 400zM290 1954v211l371 -194v-111zM331 504q0 -201 28 -273.5t113 -72.5t113 73.5t28 272.5v790q0 169 -27 239.5t-109 70.5t-114 -72 t-32 -237v-791z" />
<glyph unicode="&#xd3;" horiz-adv-x="944" d="M124 506v776q0 300 108 412q85 88 247 88q236 0 302 -194q39 -115 39 -306v-776q0 -275 -77 -400.5t-269.5 -125.5t-271 126t-78.5 400zM282 1898v111l419 174v-199zM331 504q0 -201 28 -273.5t113 -72.5t113 73.5t28 272.5v790q0 169 -27 239.5t-109 70.5t-114 -72 t-32 -237v-791z" />
<glyph unicode="&#xd4;" horiz-adv-x="944" d="M124 506v776q0 300 108 412q85 88 247 88q236 0 302 -194q39 -115 39 -306v-776q0 -275 -77 -400.5t-269.5 -125.5t-271 126t-78.5 400zM202 1854l154 294h232l153 -294h-183l-86 205l-86 -205h-184zM331 504q0 -201 28 -273.5t113 -72.5t113 73.5t28 272.5v790 q0 169 -27 239.5t-109 70.5t-114 -72t-32 -237v-791z" />
<glyph unicode="&#xd5;" horiz-adv-x="944" d="M124 506v776q0 300 108 412q85 88 247 88q236 0 302 -194q39 -115 39 -306v-776q0 -275 -77 -400.5t-269.5 -125.5t-271 126t-78.5 400zM159 1954q27 93 71 125.5t98.5 32.5t153 -37t119.5 -37h4q17 3 29.5 16.5t26.5 54.5l123 -28l-9 -37q-25 -95 -60 -127.5t-88 -32.5 t-147.5 41t-123 41t-44 -3.5t-42.5 -57.5zM331 504q0 -201 28 -273.5t113 -72.5t113 73.5t28 272.5v790q0 169 -27 239.5t-109 70.5t-114 -72t-32 -237v-791z" />
<glyph unicode="&#xd6;" horiz-adv-x="944" d="M115 1880v178h230v-178h-230zM124 506v776q0 300 108 412q85 88 247 88q236 0 302 -194q39 -115 39 -306v-776q0 -275 -77 -400.5t-269.5 -125.5t-271 126t-78.5 400zM331 504q0 -201 28 -273.5t113 -72.5t113 73.5t28 272.5v790q0 169 -27 239.5t-109 70.5t-114 -72 t-32 -237v-791zM599 1880v178h230v-178h-230z" />
<glyph unicode="&#xd7;" horiz-adv-x="710" d="M76 478l176 177l-176 177l100 104l179 -178l179 178l100 -104l-176 -177l176 -177l-100 -104l-179 178l-179 -178z" />
<glyph unicode="&#xd8;" horiz-adv-x="900" d="M75 -166l108 308q-59 126 -59 364v776q0 300 108 412q85 88 249 88t245 -94l77 218l107 -36l-116 -326q26 -99 26 -262v-776q0 -275 -77 -400.5t-269 -125.5q-134 0 -213 61l-87 -247zM331 563l281 799q-5 116 -26 172q-27 70 -109 70t-114 -72t-32 -237v-732zM346 279 q6 -29 13 -49q28 -72 113 -72t113 73.5t28 272.5v528z" />
<glyph unicode="&#xd9;" horiz-adv-x="963" d="M134 452v1308h207v-1303q0 -176 14.5 -210.5t30.5 -54.5q28 -38 97 -38t102 42t35.5 125t2.5 135v1304h206v-1308q0 -247 -77.5 -360t-268.5 -113t-270 113t-79 360zM300 1951v211l371 -194v-111z" />
<glyph unicode="&#xda;" horiz-adv-x="963" d="M134 452v1308h207v-1303q0 -176 14.5 -210.5t30.5 -54.5q28 -38 97 -38t102 42t35.5 125t2.5 135v1304h206v-1308q0 -247 -77.5 -360t-268.5 -113t-270 113t-79 360zM300 1895v111l419 174v-199z" />
<glyph unicode="&#xdb;" horiz-adv-x="963" d="M134 452v1308h207v-1303q0 -176 14.5 -210.5t30.5 -54.5q28 -38 97 -38t102 42t35.5 125t2.5 135v1304h206v-1308q0 -247 -77.5 -360t-268.5 -113t-270 113t-79 360zM220 1851l154 294h232l153 -294h-183l-86 205l-86 -205h-184z" />
<glyph unicode="&#xdc;" horiz-adv-x="963" d="M133 1877v178h230v-178h-230zM134 452v1308h207v-1303q0 -176 14.5 -210.5t30.5 -54.5q28 -38 97 -38t102 42t35.5 125t2.5 135v1304h206v-1308q0 -247 -77.5 -360t-268.5 -113t-270 113t-79 360zM617 1877v178h230v-178h-230z" />
<glyph unicode="&#xdd;" horiz-adv-x="836" d="M20 1760h201l208 -720h4l181 720h203l-284 -1021v-739h-207v739zM234 1896v111l419 174v-199z" />
<glyph unicode="&#xde;" horiz-adv-x="927" d="M162 0v1760h206v-261h147q161 0 239 -89q93 -106 93 -423v-24q-1 -340 -101 -453q-79 -88 -231 -88h-147v-422h-206zM368 594h127q88 0 117 78.5t29 291.5v30q0 184 -28.5 262.5t-113.5 78.5h-131v-741z" />
<glyph unicode="&#xdf;" horiz-adv-x="981" d="M144 0v1417q0 199 59 273q73 90 273 90q1 0 2 1q197 -1 275 -79t78 -285v-197q0 -124 -35.5 -184t-127.5 -91q127 -30 175 -116.5t48 -275.5v-77q0 -221 -36.5 -309t-106.5 -127.5t-194 -39.5h-104v168q155 0 191.5 35.5t42 88t5.5 103.5v261q0 113 -48.5 154t-181.5 41 v168q97 0 134.5 33.5t37.5 117.5v300q0 90 -31.5 123.5t-110.5 33.5t-110 -34.5t-31 -122.5v-1470h-204z" />
<glyph unicode="&#xe0;" horiz-adv-x="926" d="M126 385v146q0 129 70.5 220.5t389.5 208.5v116q0 193 -28 232t-95.5 39t-90.5 -59t-23 -213v-52h-204v43q0 272 85 362t242 90t227.5 -76t86.5 -244q7 -72 7 -177v-1021h-206v130q-16 -54 -70 -98.5t-134 -44.5q-255 0 -257 398zM300 1692v211l371 -194v-111zM333 391 q0 -131 23 -184.5t79 -53.5t96 32.5t55 70.5v571q-126 -57 -168 -88t-63.5 -72.5t-21.5 -136.5v-139z" />
<glyph unicode="&#xe1;" horiz-adv-x="926" d="M126 385v146q0 129 70.5 220.5t389.5 208.5v116q0 193 -28 232t-95.5 39t-90.5 -59t-23 -213v-52h-204v43q0 272 85 362t242 90t227.5 -76t86.5 -244q7 -72 7 -177v-1021h-206v130q-16 -54 -70 -98.5t-134 -44.5q-255 0 -257 398zM292 1636v111l419 174v-199zM333 391 q0 -131 23 -184.5t79 -53.5t96 32.5t55 70.5v571q-126 -57 -168 -88t-63.5 -72.5t-21.5 -136.5v-139z" />
<glyph unicode="&#xe2;" horiz-adv-x="926" d="M126 385v146q0 129 70.5 220.5t389.5 208.5v116q0 193 -28 232t-95.5 39t-90.5 -59t-23 -213v-52h-204v43q0 272 85 362t242 90t227.5 -76t86.5 -244q7 -72 7 -177v-1021h-206v130q-16 -54 -70 -98.5t-134 -44.5q-255 0 -257 398zM212 1592l154 294h232l153 -294h-183 l-86 205l-86 -205h-184zM333 391q0 -131 23 -184.5t79 -53.5t96 32.5t55 70.5v571q-126 -57 -168 -88t-63.5 -72.5t-21.5 -136.5v-139z" />
<glyph unicode="&#xe3;" horiz-adv-x="926" d="M126 385v146q0 129 70.5 220.5t389.5 208.5v116q0 193 -28 232t-95.5 39t-90.5 -59t-23 -213v-52h-204v43q0 272 85 362t242 90t227.5 -76t86.5 -244q7 -72 7 -177v-1021h-206v130q-16 -54 -70 -98.5t-134 -44.5q-255 0 -257 398zM169 1692q27 93 71 125.5t98.5 32.5 t153 -37t119.5 -37h4q17 3 29.5 16.5t26.5 54.5l123 -28l-9 -37q-25 -95 -60 -127.5t-88 -32.5t-147.5 41t-123 41t-44 -3.5t-42.5 -57.5zM333 391q0 -131 23 -184.5t79 -53.5t96 32.5t55 70.5v571q-126 -57 -168 -88t-63.5 -72.5t-21.5 -136.5v-139z" />
<glyph unicode="&#xe4;" horiz-adv-x="926" d="M125 1618v178h230v-178h-230zM126 385v146q0 129 70.5 220.5t389.5 208.5v116q0 193 -28 232t-95.5 39t-90.5 -59t-23 -213v-52h-204v43q0 272 85 362t242 90t227.5 -76t86.5 -244q7 -72 7 -177v-1021h-206v130q-16 -54 -70 -98.5t-134 -44.5q-255 0 -257 398zM333 391 q0 -131 23 -184.5t79 -53.5t96 32.5t55 70.5v571q-126 -57 -168 -88t-63.5 -72.5t-21.5 -136.5v-139zM609 1618v178h230v-178h-230z" />
<glyph unicode="&#xe5;" horiz-adv-x="926" d="M126 385v146q0 129 70.5 220.5t389.5 208.5v116q0 193 -28 232t-95.5 39t-90.5 -59t-23 -213v-52h-204v43q0 272 85 362t242 90t227.5 -76t86.5 -244q7 -72 7 -177v-1021h-206v130q-16 -54 -70 -98.5t-134 -44.5q-255 0 -257 398zM281 1783.5q0 78.5 53.5 133t146.5 54.5 t146.5 -54.5t53.5 -133t-53.5 -133t-146.5 -54.5t-146.5 54.5t-53.5 133zM333 391q0 -131 23 -184.5t79 -53.5t96 32.5t55 70.5v571q-126 -57 -168 -88t-63.5 -72.5t-21.5 -136.5v-139zM374 1784q0 -47 28.5 -81.5t79.5 -34.5t80 34.5t29 81.5t-29 81.5t-80 34.5 t-79.5 -34.5t-28.5 -81.5z" />
<glyph unicode="&#xe6;" horiz-adv-x="1356" d="M126 390v147q1 88 26 149.5t93.5 110t134 79.5t206.5 86v101q0 169 -12 201q-14 32 -26 50q-22 32 -88 32q-1 0 -1 1q-65 0 -87 -58q-23 -58 -23 -212v-54h-204v43q0 272 85 362t245 90t216 -100q74 100 234 100q225 0 283 -195q32 -109 32 -341q0 -77 1 -130 q0 -105 -1 -112h-448v-283q0 -168 24 -236t92.5 -68t92.5 42t29.5 103t5.5 153v111h202v-60q0 -284 -50 -380t-140 -124q-52 -16 -123 -16q-186 0 -255 133q-38 -49 -114 -88.5t-152 -39.5q-138 0 -208 104.5t-70 298.5zM333 391q0 -131 23 -184.5t79 -53.5t96 33t54 71v565 q-166 -75 -204 -119t-43 -88t-5 -88v-136zM792 889h244v184q0 162 -12 194t-29 57t-62 25q-107 0 -128 -110q-13 -69 -13 -179v-171z" />
<glyph unicode="&#xe7;" horiz-adv-x="880" d="M124 506v502q0 195 29.5 285.5t66.5 132.5q81 92 238 92t226 -78q68 -78 84 -232q6 -66 7 -157v-104h-202v132q0 140 -11 183q-40 64 -96 80q-98 0 -121 -98q-15 -62 -15 -171v-638q0 -154 23.5 -215.5t90.5 -61.5t98 43.5t31 229.5v145h202v-97q0 -307 -81 -402 t-247 -95q-262 0 -307 280q-16 103 -16 244zM277 -501q231 0 231 141q0 64 -46.5 106.5t-113.5 57.5l40 196h69l12 -144q203 -84 203 -253q0 -83 -77.5 -151.5t-200.5 -68.5q-57 0 -117 18v98z" />
<glyph unicode="&#xe8;" horiz-adv-x="893" d="M124 505v530q0 284 102 395q80 88 236 88q226 0 284 -195q32 -110 32 -297v-283h-448v-299q0 -195 31 -243t98 -48t89.5 56t23.5 121.5t1 110.5v121h201v-64q0 -239 -33.5 -335t-101.5 -138.5t-168.5 -42.5t-161 25.5t-96 67.5t-62.5 134t-27 296zM275 1692v211l371 -194 v-111zM329 882h244v191q0 160 -11.5 193t-29.5 58t-65 25q-90 0 -114 -75.5t-24 -207.5v-184z" />
<glyph unicode="&#xe9;" horiz-adv-x="893" d="M124 505v530q0 284 102 395q80 88 236 88q226 0 284 -195q32 -110 32 -297v-283h-448v-299q0 -195 31 -243t98 -48t89.5 56t23.5 121.5t1 110.5v121h201v-64q0 -239 -33.5 -335t-101.5 -138.5t-168.5 -42.5t-161 25.5t-96 67.5t-62.5 134t-27 296zM268 1636v111l419 174 v-199zM329 882h244v191q0 160 -11.5 193t-29.5 58t-65 25q-90 0 -114 -75.5t-24 -207.5v-184z" />
<glyph unicode="&#xea;" horiz-adv-x="893" d="M124 505v530q0 284 102 395q80 88 236 88q226 0 284 -195q32 -110 32 -297v-283h-448v-299q0 -195 31 -243t98 -48t89.5 56t23.5 121.5t1 110.5v121h201v-64q0 -239 -33.5 -335t-101.5 -138.5t-168.5 -42.5t-161 25.5t-96 67.5t-62.5 134t-27 296zM187 1592l154 294h232 l153 -294h-183l-86 205l-86 -205h-184zM329 882h244v191q0 160 -11.5 193t-29.5 58t-65 25q-90 0 -114 -75.5t-24 -207.5v-184z" />
<glyph unicode="&#xeb;" horiz-adv-x="893" d="M100 1618v178h230v-178h-230zM124 505v530q0 284 102 395q80 88 236 88q226 0 284 -195q32 -110 32 -297v-283h-448v-299q0 -195 31 -243t98 -48t89.5 56t23.5 121.5t1 110.5v121h201v-64q0 -239 -33.5 -335t-101.5 -138.5t-168.5 -42.5t-161 25.5t-96 67.5t-62.5 134 t-27 296zM329 882h244v191q0 160 -11.5 193t-29.5 58t-65 25q-90 0 -114 -75.5t-24 -207.5v-184zM584 1618v178h230v-178h-230z" />
<glyph unicode="&#xec;" horiz-adv-x="504" d="M63 1692v211l371 -194v-111zM149 0v1500h206v-1500h-206z" />
<glyph unicode="&#xed;" horiz-adv-x="504" d="M55 1636v111l419 174v-199zM149 0v1500h206v-1500h-206z" />
<glyph unicode="&#xee;" horiz-adv-x="504" d="M-25 1592l154 294h232l153 -294h-183l-86 205l-86 -205h-184zM149 0v1500h206v-1500h-206z" />
<glyph unicode="&#xef;" horiz-adv-x="504" d="M-112 1618v178h230v-178h-230zM149 0v1500h206v-1500h-206zM372 1618v178h230v-178h-230z" />
<glyph unicode="&#xf0;" horiz-adv-x="968" d="M104 462v109q0 288 72.5 409t244.5 121q127 0 191 -76q0 42 -11 194.5t-26 187.5l-217 -126l-59 118l208 121q-84 97 -225 115l67 145q214 -10 334 -160l200 115l59 -118l-189 -110q27 -56 48 -284t21 -314v-393q0 -207 -32 -302t-72 -139q-85 -95 -273 -95t-264.5 120.5 t-76.5 361.5zM311 440q0 -168 30.5 -225t120 -57t122 73.5t32.5 249.5v373q-13 25 -58.5 49t-103.5 24q-85 0 -114 -75t-29 -274v-138z" />
<glyph unicode="&#xf1;" horiz-adv-x="970" d="M147 0v1500h205v-159q20 73 87.5 125.5t168 52.5t163 -81.5t62.5 -241.5v-1196h-205v1195q0 76 -35 114t-97 38t-103 -43t-41 -129v-1175h-205zM172 1692q27 93 71 125.5t98.5 32.5t153 -37t119.5 -37h4q17 3 29.5 16.5t26.5 54.5l123 -28l-9 -37q-25 -95 -60 -127.5 t-88 -32.5t-147.5 41t-123 41t-44 -3.5t-42.5 -57.5z" />
<glyph unicode="&#xf2;" horiz-adv-x="914" d="M124 496v531q0 365 168 455q68 36 158 36q235 0 300 -189q40 -119 40 -302v-531q0 -316 -85 -415t-246 -99q-235 0 -299 200q-36 115 -36 314zM275 1692v211l371 -194v-111zM330 439q0 -221 62 -267q25 -19 62 -19h4q79 0 102.5 74.5t23.5 211.5v629q0 214 -61 260 q-25 19 -65 19q-81 0 -104.5 -73t-23.5 -206v-629z" />
<glyph unicode="&#xf3;" horiz-adv-x="914" d="M124 496v531q0 365 168 455q68 36 158 36q235 0 300 -189q40 -119 40 -302v-531q0 -316 -85 -415t-246 -99q-235 0 -299 200q-36 115 -36 314zM268 1636v111l419 174v-199zM330 439q0 -221 62 -267q25 -19 62 -19h4q79 0 102.5 74.5t23.5 211.5v629q0 214 -61 260 q-25 19 -65 19q-81 0 -104.5 -73t-23.5 -206v-629z" />
<glyph unicode="&#xf4;" horiz-adv-x="914" d="M124 496v531q0 365 168 455q68 36 158 36q235 0 300 -189q40 -119 40 -302v-531q0 -316 -85 -415t-246 -99q-235 0 -299 200q-36 115 -36 314zM187 1592l154 294h232l153 -294h-183l-86 205l-86 -205h-184zM330 439q0 -221 62 -267q25 -19 62 -19h4q79 0 102.5 74.5 t23.5 211.5v629q0 214 -61 260q-25 19 -65 19q-81 0 -104.5 -73t-23.5 -206v-629z" />
<glyph unicode="&#xf5;" horiz-adv-x="914" d="M124 496v531q0 365 168 455q68 36 158 36q235 0 300 -189q40 -119 40 -302v-531q0 -316 -85 -415t-246 -99q-235 0 -299 200q-36 115 -36 314zM144 1692q27 93 71 125.5t98.5 32.5t153 -37t119.5 -37h4q17 3 29.5 16.5t26.5 54.5l123 -28l-9 -37q-25 -95 -60 -127.5 t-88 -32.5t-147.5 41t-123 41t-44 -3.5t-42.5 -57.5zM330 439q0 -221 62 -267q25 -19 62 -19h4q79 0 102.5 74.5t23.5 211.5v629q0 214 -61 260q-25 19 -65 19q-81 0 -104.5 -73t-23.5 -206v-629z" />
<glyph unicode="&#xf6;" horiz-adv-x="914" d="M100 1618v178h230v-178h-230zM124 496v531q0 365 168 455q68 36 158 36q235 0 300 -189q40 -119 40 -302v-531q0 -316 -85 -415t-246 -99q-235 0 -299 200q-36 115 -36 314zM330 439q0 -221 62 -267q25 -19 62 -19h4q79 0 102.5 74.5t23.5 211.5v629q0 214 -61 260 q-25 19 -65 19q-81 0 -104.5 -73t-23.5 -206v-629zM584 1618v178h230v-178h-230z" />
<glyph unicode="&#xf7;" horiz-adv-x="804" d="M94 638v232h616v-232h-616zM253 237v298h298v-298h-298zM253 976v298h298v-298h-298z" />
<glyph unicode="&#xf8;" horiz-adv-x="879" d="M124 496v531q0 365 168 455q68 36 162.5 36t160.5 -32l52 186l101 -28l-64 -229q86 -112 86 -388v-531q0 -316 -85 -415t-246 -99q-87 0 -150 27l-51 -182l-100 28l61 217q-95 107 -95 424zM330 469l227 811q-46 56 -98 67q-82 0 -105.5 -73t-23.5 -206v-599zM364 205 q29 -52 101 -52t95.5 74.5t23.5 211.5v549z" />
<glyph unicode="&#xf9;" horiz-adv-x="968" d="M137 312v1188h205v-1165q0 -177 129 -177q72 0 108.5 50t36.5 132v1160h206v-1500h-206v153q-24 -76 -82.5 -124.5t-157 -48.5t-169 81.5t-70.5 250.5zM317 1692v211l371 -194v-111z" />
<glyph unicode="&#xfa;" horiz-adv-x="968" d="M137 312v1188h205v-1165q0 -177 129 -177q72 0 108.5 50t36.5 132v1160h206v-1500h-206v153q-24 -76 -82.5 -124.5t-157 -48.5t-169 81.5t-70.5 250.5zM309 1636v111l419 174v-199z" />
<glyph unicode="&#xfb;" horiz-adv-x="968" d="M137 312v1188h205v-1165q0 -177 129 -177q72 0 108.5 50t36.5 132v1160h206v-1500h-206v153q-24 -76 -82.5 -124.5t-157 -48.5t-169 81.5t-70.5 250.5zM229 1592l154 294h232l153 -294h-183l-86 205l-86 -205h-184z" />
<glyph unicode="&#xfc;" horiz-adv-x="968" d="M137 312v1188h205v-1165q0 -177 129 -177q72 0 108.5 50t36.5 132v1160h206v-1500h-206v153q-24 -76 -82.5 -124.5t-157 -48.5t-169 81.5t-70.5 250.5zM142 1618v178h230v-178h-230zM626 1618v178h230v-178h-230z" />
<glyph unicode="&#xfd;" horiz-adv-x="791" d="M52 1500h199l108 -780l44 -406h18l39 406l98 780h198l-249 -1529q-18 -125 -46 -163t-62 -48.5t-89 -10.5h-201v155h71q105 0 116 24q9 11 9 43t-8 82zM213 1636v111l419 174v-199z" />
<glyph unicode="&#xfe;" horiz-adv-x="939" d="M147 -274v2053h206v-404q28 70 84 104q57 34 121 34q179 0 226 -186q30 -116 30 -297v-543q0 -299 -75.5 -402t-212.5 -103q-54 0 -100.5 34t-72.5 84v-374h-206zM353 452q0 -160 27 -228.5t103 -68.5t100.5 69.5t24.5 235.5v605q0 178 -29 229t-86 51t-81 -23.5 t-41.5 -72t-17.5 -184.5v-613z" />
<glyph unicode="&#xff;" horiz-adv-x="791" d="M46 1618v178h230v-178h-230zM52 1500h199l108 -780l44 -406h18l39 406l98 780h198l-249 -1529q-18 -125 -46 -163t-62 -48.5t-89 -10.5h-201v155h71q105 0 116 24q9 11 9 43t-8 82zM530 1618v178h230v-178h-230z" />
<glyph unicode="&#x152;" horiz-adv-x="1214" d="M124 507v775q0 234 73.5 356t280.5 122h634v-172h-297v-602h280v-174h-280v-640h302v-172h-644q-194 0 -271.5 118t-77.5 389zM331 505q0 -198 26.5 -262t115.5 -65h136v1403h-131q-85 0 -116 -63t-31 -225v-788z" />
<glyph unicode="&#x153;" horiz-adv-x="1358" d="M124 497v530q0 364 171 455q68 36 167 36q146 0 231 -115q85 115 234 115q225 0 283 -195q32 -109 32 -341q0 -77 1 -130q0 -105 -1 -112h-448v-296q0 -195 31 -243t92 -48t85.5 41t30 102.5t5.5 163t-1 102.5h203v-60q0 -241 -34 -336t-101.5 -139.5t-185.5 -44.5 q-149 0 -230 114q-84 -114 -227 -114q-236 0 -300 200q-38 117 -38 315zM331 439q0 -221 63 -267q26 -19 63 -19h4q78 0 102.5 75.5t24.5 210.5v629q0 172 -33.5 225.5t-83.5 53.5q-92 0 -116 -74.5t-24 -204.5v-629zM795 889h243v184q0 161 -11.5 193t-28 57.5t-61.5 25.5 q-107 0 -128 -108q-14 -67 -14 -180v-172z" />
<glyph unicode="&#x178;" horiz-adv-x="836" d="M20 1760h201l208 -720h4l181 720h203l-284 -1021v-739h-207v739zM67 1878v178h230v-178h-230zM551 1878v178h230v-178h-230z" />
<glyph unicode="&#x2c6;" horiz-adv-x="970" d="M215 1592l154 294h232l153 -294h-183l-86 205l-86 -205h-184z" />
<glyph unicode="&#x2dc;" horiz-adv-x="1117" d="M245 492q27 93 71 125.5t98.5 32.5t153 -37t119.5 -37h4q17 3 29.5 16.5t26.5 54.5l123 -28l-9 -37q-25 -95 -60 -127.5t-88 -32.5t-147.5 41t-123 41t-44 -3.5t-42.5 -57.5z" />
<glyph unicode="&#x2000;" horiz-adv-x="1115" />
<glyph unicode="&#x2001;" horiz-adv-x="2231" />
<glyph unicode="&#x2002;" horiz-adv-x="1115" />
<glyph unicode="&#x2003;" horiz-adv-x="2231" />
<glyph unicode="&#x2004;" horiz-adv-x="743" />
<glyph unicode="&#x2005;" horiz-adv-x="557" />
<glyph unicode="&#x2006;" horiz-adv-x="371" />
<glyph unicode="&#x2007;" horiz-adv-x="371" />
<glyph unicode="&#x2008;" horiz-adv-x="278" />
<glyph unicode="&#x2009;" horiz-adv-x="446" />
<glyph unicode="&#x200a;" horiz-adv-x="123" />
<glyph unicode="&#x2010;" horiz-adv-x="696" d="M88 763v136h452v-136h-452z" />
<glyph unicode="&#x2011;" horiz-adv-x="696" d="M88 763v136h452v-136h-452z" />
<glyph unicode="&#x2012;" horiz-adv-x="696" d="M88 763v136h452v-136h-452z" />
<glyph unicode="&#x2013;" horiz-adv-x="756" d="M120 509v232h516v-232h-516z" />
<glyph unicode="&#x2014;" horiz-adv-x="1153" d="M60 570v171h1032v-171h-1032z" />
<glyph unicode="&#x2018;" horiz-adv-x="591" d="M144 1116v231l124 432h129l-92 -423h148v-240h-309z" />
<glyph unicode="&#x2019;" horiz-adv-x="591" d="M160 1539v240h309v-231l-125 -432h-129l92 423h-147z" />
<glyph unicode="&#x201a;" horiz-adv-x="484" d="M97 0v232h302v-223l-114 -391h-133l86 382h-141z" />
<glyph unicode="&#x201c;" horiz-adv-x="1030" d="M159 1145v224l114 410h133l-86 -401h141v-233h-302zM615 1145v224l115 410h132l-86 -401h141v-233h-302z" />
<glyph unicode="&#x201d;" horiz-adv-x="1077" d="M173 1546v233h302v-224l-114 -410h-133l86 401h-141zM630 1546v233h302v-224l-115 -410h-133l86 401h-140z" />
<glyph unicode="&#x201e;" horiz-adv-x="1016" d="M166 0v233h302v-224l-115 -410h-132l86 401h-141zM622 0v233h302v-224l-114 -410h-133l86 401h-141z" />
<glyph unicode="&#x2022;" horiz-adv-x="861" d="M197 741q0 124 60 191t173.5 67t173.5 -67t60 -191t-60 -191t-173.5 -67t-173.5 67t-60 191z" />
<glyph unicode="&#x202f;" horiz-adv-x="446" />
<glyph unicode="&#x2039;" horiz-adv-x="606" d="M70 657v182l478 271v-207l-312 -154l312 -163v-214z" />
<glyph unicode="&#x203a;" horiz-adv-x="727" d="M153 372v214l312 163l-312 154v207l478 -271v-182z" />
<glyph unicode="&#x205f;" horiz-adv-x="557" />
<glyph unicode="&#x20ac;" horiz-adv-x="1076" d="M23 721v148h101v97h-101v140h101v146q0 200 33 294t72 138q85 96 248 97q228 -1 294 -201q38 -115 38 -306v-195h-203v196q0 169 -18.5 228.5t-44.5 79t-66 19.5q-83 0 -114.5 -78.5t-31.5 -247.5v-170h187v-140h-187v-97h187v-148h-187v-207q0 -200 28.5 -279.5 t110 -79.5t109 80t27.5 280v195h205v-193q0 -277 -75.5 -407.5t-263.5 -130.5t-268 134.5t-80 405.5v202h-101z" />
<glyph unicode="&#x2122;" horiz-adv-x="1537" d="M103 1635v126h428v-126h-133v-1159h-152v1159h-143zM661 476v1285h207l172 -1044l166 1044h207v-1285h-140v525l12 497l-170 -1022h-149l-177 1022l12 -497v-525h-140z" />
<glyph unicode="&#xe000;" horiz-adv-x="1500" d="M0 0v1500h1500v-1500h-1500z" />
<glyph unicode="&#xfb01;" horiz-adv-x="1126" d="M71 1349v151h129v35q0 271 232 271q86 0 149 -21v-143q-40 6 -87 6t-68 -25.5t-21 -79.5v-43h573v-1500h-205v1349h-368v-1349h-205v1349h-129zM773 1611v189h205v-189h-205z" />
<glyph unicode="&#xfb02;" horiz-adv-x="1124" d="M71 1291v151h129v73q0 143 94 212t249 69q64 0 138.5 -12t294.5 -59v-1725h-205v1622q-96 20 -177 20q-189 0 -189 -119v-81h176v-151h-176v-1291h-205v1291h-129z" />
<glyph unicode="&#xfb03;" horiz-adv-x="1749" d="M71 1349v151h129v47q0 271 232 271q86 0 149 -21v-143q-40 6 -87 6t-68 -25.5t-21 -79.5v-55h418v47q0 271 232 271q86 0 149 -21v-143q-40 6 -87 6t-68 -25.5t-21 -79.5v-55h573v-1500h-205v1349h-368v-1349h-205v1349h-418v-1349h-205v1349h-129zM1396 1611v189h205 v-189h-205z" />
<glyph unicode="&#xfb04;" horiz-adv-x="1747" d="M71 1291v151h129v73q0 271 232 271q86 0 149 -21v-143q-40 6 -87 6t-68 -25.5t-21 -79.5v-81h418v73q0 143 94 212t249 69q64 0 138.5 -12t294.5 -59v-1725h-205v1622q-96 20 -177 20q-189 0 -189 -119v-81h176v-151h-176v-1291h-205v1291h-418v-1291h-205v1291h-129z " />
</font>
</defs>
</svg>
